<?xml version="1.0" standalone="no"?>
<!DOCTYPE svg PUBLIC "-//W3C//DTD SVG 1.1//EN" "http://www.w3.org/Graphics/SVG/1.1/DTD/svg11.dtd" >
<svg>
<metadata>
Created by FontForge 20090622 at Thu Nov  9 20:48:03 2017
 By ffonts
Morgan Allan Knutson
</metadata>
<defs>
<font id="MenschBold" horiz-adv-x="833" >
  <font-face 
    font-family="Mensch"
    font-weight="700"
    font-stretch="condensed"
    units-per-em="1000"
    panose-1="2 0 0 0 0 0 0 0 0 0"
    ascent="750"
    descent="-250"
    x-height="755"
    cap-height="767"
    bbox="-27.8947 -125.784 589.895 822.667"
    underline-thickness="50"
    underline-position="-50"
    unicode-range="U+0020-U+2122"
  />
<missing-glyph horiz-adv-x="500" 
 />
    <glyph glyph-name=".notdef" horiz-adv-x="500" 
 />
    <glyph glyph-name=".null" horiz-adv-x="0" 
 />
    <glyph glyph-name="nonmarkingreturn" horiz-adv-x="500" 
 />
    <glyph glyph-name="space" unicode=" " horiz-adv-x="500" 
 />
    <glyph glyph-name="space" unicode="&#xa0;" horiz-adv-x="500" 
 />
    <glyph glyph-name="H" unicode="H" horiz-adv-x="515" 
d="M396 767q25 0 42.5 -17.5t17.5 -42.5v-662q0 -25 -17.5 -42.5t-42.5 -17.5t-42.5 17.5t-17.5 42.5v230h-156v-230q0 -25 -17.5 -42.5t-42.5 -17.5t-42.5 17.5t-17.5 42.5v662q0 25 17.5 42.5t42.5 17.5t42.5 -17.5t17.5 -42.5v-312h156v312q0 25 17.5 42.5t42.5 17.5z
" />
    <glyph glyph-name="I" unicode="I" horiz-adv-x="248" 
d="M124 767q26 0 43 -17.5t17 -42.5v-662q0 -25 -17 -42.5t-43 -17.5q-25 0 -42.5 17.5t-17.5 42.5v662q0 25 17.5 42.5t42.5 17.5z" />
    <glyph glyph-name="J" unicode="J" horiz-adv-x="493" 
d="M430 189q0 -6 -0.5 -23t-5.5 -38.5t-16 -46t-31 -45.5q-17 -19 -50.5 -37t-86.5 -18t-85.5 18t-49.5 37q-21 24 -32 50.5t-15 50t-4 40.5v21q3 15 12 27q7 11 20 19.5t35 8.5t32.5 -10.5t15.5 -22.5q5 -14 5 -32v-13.5t2.5 -19t6.5 -21t11 -17.5q2 -3 12 -9.5t34 -6.5
q26 0 36.5 7t13.5 10q7 7 11 17t6 20t2.5 17.5t0.5 10.5v4v525q0 25 17.5 42.5t42.5 17.5t42.5 -17.5t17.5 -42.5v-523v0z" />
    <glyph glyph-name="K" unicode="K" horiz-adv-x="508" 
d="M473 73q11 -23 3.5 -46.5t-30.5 -34.5q-12 -6 -27 -6q-17 0 -31 8.5t-22 24.5l-148 292l-46 -74v-195q0 -25 -17.5 -42.5t-42.5 -17.5t-42.5 17.5t-17.5 42.5v212v1v448q0 25 17.5 42.5t42.5 17.5t42.5 -17.5t17.5 -42.5v-237l164 266q13 22 37 27.5t46 -7.5
q21 -13 27 -37t-8 -45l-147 -239l182 -358v0z" />
    <glyph glyph-name="L" unicode="L" horiz-adv-x="516" 
d="M398 105q26 0 43 -17.5t17 -42.5t-17 -42.5t-43 -17.5h-261q-25 0 -42.5 17.5t-17.5 42.5v662q0 25 17.5 42.5t42.5 17.5t42.5 -17.5t17.5 -42.5v-602h201v0z" />
    <glyph glyph-name="M" unicode="M" horiz-adv-x="570" 
d="M524 45q0 -25 -17.5 -42.5t-42.5 -17.5t-42.5 17.5t-17.5 42.5v412l-63 -124q-8 -22 -29 -32q-12 -6 -25 -6h-1h-1h-1h-1q-13 0 -25 6q-21 10 -29 32l-63 124v-412q0 -25 -17.5 -42.5t-42.5 -17.5t-42.5 17.5t-17.5 42.5v662v3v3v1v1q0 1 0.5 1t0.5 1v1v2q0 1 0.5 1.5
t0.5 1.5q1 6 4 11q0 1 0.5 1t0.5 1l1 1l1 1q0 1 1 2v1l2 2t3.5 4t3.5 4l2 2h1q0 1 0.5 1t0.5 1h1q1 1 2 1q0 1 1 1l1 1l2 1q1 1 2 1l1 1q1 0 2 1q1 0 1.5 0.5t1.5 0.5t1.5 0.5t1.5 0.5t2 1h1h2l1 1h1h2h1q1 1 2 1h1h3h3h3h2h1q1 0 2 -1h2h1h2q4 -2 7 -2.5t6 -2.5h1
q0 -1 2 -1q0 -1 1 -1l1 -1q1 0 2 -1l2 -2h1q5 -3 8 -8l2 -2l2 -2q0 -1 0.5 -1t0.5 -1l1 -1l1 -1q0 -1 1 -2q0 -1 0.5 -1.5t0.5 -1.5l126 -247l126 247q0 2 1 3t1 2q1 0 1 1l1 1q0 1 1 2l2 2l2 2q3 5 8 8l2 2h1q1 1 2 1l1 1q1 0 1 1q2 0 2 1h1q2 2 5 2.5t5 1.5q2 0 3 1h2h1h2
q0 1 1 1h2h2h3h3h3q2 0 3 -1h2h2l1 -1h2h1l2 -1q1 0 1.5 -0.5t1.5 -0.5t2 -1h1q1 -1 2 -1v-1q2 0 3 -1t2 -1l1 -1l1 -1q1 0 2 -1l2 -2q2 0 2 -2q5 -3 8 -8l2 -2v-1q1 -1 1 -2q1 0 1 -1l1 -1q0 -1 1 -2q2 -5 4 -11q0 -2 1 -3v-2v-1q0 -1 1 -2v-1v-1v-3v-3v-662z" />
    <glyph glyph-name="N" unicode="N" horiz-adv-x="507" 
d="M397 767q25 0 42.5 -17.5t17.5 -42.5v-661v-4v-3v-1v-2l-1 -1v-1v-2v-1q-1 -1 -1 -2v-1q0 -1 -0.5 -1t-0.5 -1t-0.5 -1.5t-0.5 -1.5t-0.5 -1.5t-0.5 -1.5t-0.5 -1t-0.5 -1v-1q-1 0 -1 -1l-1 -1q0 -1 -1 -2l-1 -1v-1q-1 0 -1 -1t-1 -1q0 -1 -0.5 -1t-0.5 -1h-1q0 -1 -1 -2
l-2 -2l-2 -2l-2 -2h-1l-2 -2q-1 -1 -2 -1q0 -1 -1 -1l-1 -1q-1 0 -1 -0.5t-1 -0.5h-1l-2 -2q-4 -2 -7 -3t-8 -2q-4 -1 -12 -1q-6 0 -9 1h-2h-1q-1 0 -1 1h-4v1h-2q-4 2 -5 2t-1 1h-1q-1 0 -1 1q-1 0 -2 1q-1 0 -1 1h-1q-1 0 -1 0.5t-1 0.5q-11 8 -18 19v1q-1 0 -1 1l-1 1v1
q-1 1 -1 2t-1 2l-171 395v-372q0 -25 -17.5 -42.5t-42.5 -17.5t-42.5 17.5t-17.5 42.5v661v4v3v1v2l1 1v1v2v1q1 1 1 2v1q0 1 0.5 1t0.5 1t0.5 1.5t0.5 1.5t0.5 1.5t0.5 1.5t0.5 1t0.5 1v1l2 2q0 1 0.5 1t0.5 1l1 1v1q1 1 1 2h1q0 1 0.5 1t0.5 1h1q0 1 1 2l2 2v1q1 0 2 1v1
q1 0 2 1h1l2 2l2 2h1q0 1 1 1t1 0.5t1 0.5h1l2 2q7 4 14 5h1q5 1 15 1h3h1l1 -1h2h1h2q0 -1 1 -1h2h1q0 -1 2 -1q1 -1 3 -1q1 -1 2 -1h1q0 -1 2 -1v-1q2 0 2 -1h1q1 0 1 -0.5t1 -0.5l1 -1l1 -1l1 -1h1q1 -1 2 -1v-1q1 0 1 -0.5t1 -0.5v-1q1 0 1 -0.5t1 -0.5v-1l2 -2l2 -2
l2 -2q0 -1 1 -2q1 0 1 -1t1 -1q0 -2 1 -2v-1q1 -1 1 -2h1q0 -2 0.5 -2.5t0.5 -1.5l171 -395v372q0 25 17.5 42.5t42.5 17.5z" />
    <glyph glyph-name="O" unicode="O" horiz-adv-x="453" 
d="M276 114q7 7 11 17t6 20t2.5 17.5t0.5 10.5v2v392q0 27 -7.5 43t-18 25t-22.5 11.5t-22 2.5q-8 0 -19 -2.5t-21 -10.5t-17.5 -24.5t-7.5 -43.5v-388v-2v-14t2 -19t6 -20.5t11 -17.5q3 -3 13 -9.5t33 -6.5q26 0 36.5 7t13.5 10zM416 184q0 -6 -0.5 -22.5t-5.5 -38t-16 -46
t-31 -45.5q-17 -19 -50.5 -37t-86.5 -18t-85.5 18t-49.5 37q-20 22 -30.5 47t-15 47.5t-4.5 40v24.5v383q0 60 20 97t41 56q51 48 124 48q34 0 68 -12t61 -37t44 -63t17 -90v-389z" />
    <glyph glyph-name="P" unicode="P" horiz-adv-x="474" 
d="M285 426q12 20 19 45t7 51t-7 51.5t-19 45.5q-11 15 -19.5 21.5t-13.5 6.5h-84v-250h84q5 0 13.5 6.5t19.5 22.5zM386 683q22 -34 33.5 -75.5t11.5 -85.5t-11.5 -85t-33.5 -76q-26 -40 -61 -62t-73 -22h-84v-231q0 -25 -17.5 -42.5t-42.5 -17.5t-42.5 17.5t-17.5 42.5
v660q0 17 8 30.5t21 21.5q15 9 32 9h143q38 0 73 -21.5t61 -62.5z" />
    <glyph glyph-name="Q" unicode="Q" horiz-adv-x="500" 
d="M295 138q13 14 17 35t4 30l-1 3v1l1 390q0 27 -7.5 43t-18 25t-22.5 11.5t-22 2.5q-8 0 -19 -2.5t-21 -10.5t-17.5 -24.5t-7.5 -43.5v-388l-1 -2q0 -5 0.5 -14t2.5 -19t6 -20.5t11 -17.5q2 -3 12 -9.5t34 -6.5q26 0 36 6.5t13 10.5zM433 54q16 -19 14.5 -43.5
t-20.5 -41.5q-18 -15 -40 -15q-12 0 -24 5t-21 16l-31 36q-14 -5 -30 -7.5t-35 -2.5q-53 0 -85.5 18t-49.5 37q-20 22 -30.5 47t-15 47.5t-5 40t0.5 24.5v383q0 30 5.5 54t14.5 43t19.5 33t20.5 23q53 48 125 48q34 0 68 -12t61 -37t44 -63t17 -90l-1 -389v-17.5t-3 -29.5
t-9 -37t-18 -39z" />
    <glyph glyph-name="R" unicode="R" horiz-adv-x="491" 
d="M450 70q11 -23 1.5 -46t-32.5 -33q-12 -5 -24 -5q-17 0 -32 9.5t-23 26.5l-111 254h-60v-230q0 -25 -17.5 -42.5t-42.5 -17.5t-42.5 17.5t-17.5 42.5v660q0 25 17.5 42.5t42.5 17.5h145q38 0 73 -21.5t61 -61.5q45 -71 45 -162q0 -44 -11.5 -85t-33.5 -76
q-10 -15 -21 -27t-22 -22zM254 396q5 0 13.5 6.5t19.5 22.5q13 20 19.5 45t6.5 51t-6.5 51.5t-19.5 45.5q-11 15 -19.5 21.5t-13.5 6.5h-85v-250h85z" />
    <glyph glyph-name="S" unicode="S" horiz-adv-x="468" 
d="M379 352q59 -74 59 -173q0 -31 -6.5 -55.5t-16 -43.5t-21.5 -33t-24 -24q-56 -45 -136 -45q-39 0 -73 11t-60 34q-11 9 -22.5 23t-21 33t-15.5 44t-6 57q0 25 17.5 42.5t42.5 17.5q26 0 43 -17.5t17 -42.5q0 -14 2.5 -28.5t10.5 -26.5t23.5 -19.5t41.5 -7.5
q18 0 33.5 4.5t26.5 13.5q24 21 24 63q0 31 -8 54t-23.5 42.5t-38 37l-50.5 37.5q-26 18 -51.5 37.5t-47.5 44.5q-26 32 -39.5 66.5t-13.5 75.5q0 6 0.5 22t5 37t15 44t30.5 44q17 19 51 37t88 18q55 0 87.5 -18.5t49.5 -37.5q19 -23 28.5 -48.5t12.5 -47t2 -37.5t-2 -19
q-3 -18 -12 -30q-8 -11 -21.5 -18.5t-36.5 -2.5q-22 4 -32.5 14.5t-14 22t-3 20.5t0.5 11q1 4 1 11t-1.5 15t-4.5 16t-8 14q-12 15 -46 15q-27 0 -37.5 -7t-13.5 -10q-7 -7 -10.5 -16t-5.5 -18t-2.5 -15.5t-0.5 -9.5v-2v-2q0 -20 7 -36.5t19.5 -31t31.5 -29l43 -31.5
l57.5 -43t54.5 -53z" />
    <glyph glyph-name="T" unicode="T" horiz-adv-x="445" 
d="M377 766q25 0 42.5 -17t17.5 -43q0 -25 -17.5 -42.5t-42.5 -17.5h-93v-600q0 -25 -17.5 -42.5t-42.5 -17.5t-42.5 17.5t-17.5 42.5v600h-95q-25 0 -42.5 17.5t-17.5 42.5q0 26 17.5 43t42.5 17h308v0z" />
    <glyph glyph-name="U" unicode="U" horiz-adv-x="501" 
d="M437 182q0 -6 -0.5 -22.5t-5.5 -38t-16 -46t-31 -45.5q-17 -19 -50.5 -37t-86.5 -18t-85.5 18t-49.5 37q-20 22 -30.5 47t-15 47.5t-4.5 40v24.5v516q0 25 17.5 42.5t42.5 17.5t42.5 -17.5t17.5 -42.5v-521v-2v-14t2 -19t6 -20.5t11 -17.5q3 -3 13 -9.5t33 -6.5
q26 0 36.5 6.5t13.5 9.5q14 15 17 36t3 30v3v1v523q0 25 17.5 42.5t42.5 17.5t42.5 -17.5t17.5 -42.5v-522v0z" />
    <glyph glyph-name="V" unicode="V" horiz-adv-x="468" 
d="M379 759q25 -5 38.5 -25.5t8.5 -45.5l-132 -653q-5 -22 -21.5 -35t-37.5 -13h-2h-3q-21 0 -37.5 13t-20.5 35l-133 653q-5 25 8.5 45.5t38.5 25.5q24 5 44.5 -8.5t25.5 -38.5l77 -375l76 375q5 25 25.5 38.5t44.5 8.5z" />
    <glyph glyph-name="W" unicode="W" horiz-adv-x="625" 
d="M517 764q25 -3 40 -22.5t12 -44.5l-81 -660q0 -2 -0.5 -3t-0.5 -2v-1l-1 -1v-2v-1l-1 -2q0 -2 -1 -3q-1 -2 -1.5 -3.5t-1.5 -3.5h-1q0 -2 -1 -3q0 -1 -0.5 -1t-0.5 -1h-1q0 -1 -1 -2v-1q-1 0 -1 -1q-1 0 -1 -1q-1 0 -1 -1q-3 -4 -11 -10h-1l-1 -1h-1q-1 -1 -2 -1l-1 -1
l-1 -1h-2v-1l-6 -2t-7 -2h-2h-1h-1q-1 0 -1 -1h-2h-2h-3q-7 0 -10 1q-2 0 -3 1h-3l-1 1h-1q-1 0 -2 1h-1l-1 1q-4 0 -7 3l-2 1q-1 1 -2 1.5t-2 1.5q-1 0 -1 0.5t-1 0.5l-2 2q-10 8 -14 18q-1 1 -1 2l-1 1v1q0 1 -0.5 1t-0.5 1t-0.5 1.5t-0.5 1.5l-59 179l-59 -179
q-1 -1 -1 -3q-1 -1 -1 -2v-1q-1 0 -1 -1t-1 -2q-7 -12 -14 -18l-2 -2h-1l-1 -1t-2 -1.5t-2 -1.5h-1q0 -1 -1 -1h-1q-2 -2 -8 -4q-1 -1 -2 -1h-1q-1 0 -1 -1h-3q-1 -1 -3 -1q-3 -1 -10 -1h-3h-1h-2h-1q0 1 -1 1h-2h-2q-4 1 -7 2l-6 2l-1 1h-1q-1 1 -2 1l-1 1l-1 1h-1l-2 1
q-4 3 -10 9l-1 1l-1 1l-1 1l-1 1v1l-2 2q0 1 -0.5 1t-0.5 1q-3 5 -5 10q-1 1 -1 3q-1 1 -1 2v1q0 1 -0.5 1t-0.5 1v1v1q-1 1 -1 5l-82 660q-3 25 12.5 44.5t40.5 22.5t44.5 -12t22.5 -40l48 -396l33 99q0 1 0.5 1.5t0.5 1.5l1 1v1q0 1 0.5 1.5t0.5 1.5q2 2 2.5 3.5t2.5 3.5
q0 1 1 2v1q1 0 1 0.5t1 0.5v1q1 0 1 0.5t1 0.5v1l1 1q1 1 2 1v1q1 1 2 1v1q1 0 2 1q2 2 3 2q2 2 7 4q1 1 1.5 1t1.5 1h1l1 1q2 0 3 1q2 0 3 1h3l1 1h2h1h2l1 1h2h1h1h2h1h2h1h2q0 -1 1 -1h2h1h2l1 -1h2h1q1 -1 3 -1q1 -1 3 -1l2 -1q4 -2 10 -6q2 0 2 -2h1l1 -1q1 0 1 -1
l1 -1q1 0 1 -1q1 0 1 -1q1 0 1 -1q1 0 1 -1q1 0 1 -1q1 0 1 -1l1 -1l1 -1l1 -2q2 -2 2.5 -3.5t2.5 -3.5q0 -2 1 -3v-1l1 -1q0 -1 0.5 -1.5t0.5 -1.5l32 -99l49 396q3 25 22.5 40t44.5 12z" />
    <glyph glyph-name="X" unicode="X" horiz-adv-x="477" 
d="M425 67q9 -23 -1 -46t-33 -32q-9 -4 -22 -4q-18 0 -33 10.5t-23 28.5l-74 194l-75 -194q-7 -18 -22.5 -28.5t-33.5 -10.5q-12 0 -21 4q-23 9 -33.5 32t-1.5 46l104 270l19 48l-113 293q-9 23 1 45.5t33 31.5t46 -1t32 -33l65 -169l65 169q9 23 31.5 33t45.5 1t33.5 -31.5
t1.5 -45.5l-113 -293l19 -48l103 -270v0z" />
    <glyph glyph-name="Y" unicode="Y" horiz-adv-x="446" 
d="M371 758q23 -9 33 -32t1 -46l-122 -309v-328q0 -25 -17.5 -42.5t-42.5 -17.5q-26 0 -43 17.5t-17 42.5v328l-122 309q-10 23 0 46t33 32t46 -0.5t32 -32.5l71 -179l70 179q9 23 32 32.5t46 0.5z" />
    <glyph glyph-name="Z" unicode="Z" horiz-adv-x="477" 
d="M366 106q25 0 42.5 -17.5t17.5 -42.5t-17.5 -42.5t-42.5 -17.5h-254q-17 0 -30 8q-22 10 -31 32t0 45l227 575h-131q-25 0 -42.5 17.5t-17.5 42.5q0 26 17.5 43t42.5 17h219h3h3h3h1l1 -1h2h1q1 0 1 -0.5t1 -0.5h1l2 -1q2 0 3 -1q1 0 1.5 -0.5t1.5 -0.5t2 -1l1 -1h2
q0 -1 1 -1l1 -1l1 -1h1q1 -1 2 -1v-1q4 -3 10 -9v-1q2 0 2 -2h1q0 -1 1 -2l1 -1v-1q1 -1 1 -2l1 -1q4 -8 5 -13v-2q1 0 1 -1v-2v-1v-1q1 -1 1 -2v-1v-2v-1v-3v-3v-2v-1q0 -1 -1 -2v-1v-2v-1q0 -1 -1 -1v-3q-1 -1 -1 -3q0 -1 -0.5 -1.5t-0.5 -1.5l-228 -578h172v0z" />
    <glyph glyph-name="C" unicode="C" horiz-adv-x="484" 
d="M436 186q0 -3 -0.5 -19.5t-5 -39t-15.5 -48.5t-32 -48q-17 -19 -50.5 -37t-86.5 -18t-85.5 18t-49.5 37q-20 22 -31 47t-15.5 47.5t-4.5 40v24.5v384q0 61 20 97.5t41 56.5q25 23 57 35.5t67 12.5q34 0 68.5 -12t61.5 -37t44 -63t17 -90q0 -26 -17.5 -43t-42.5 -17
t-42.5 17t-17.5 43q0 27 -7.5 43t-18 24.5t-23 11.5t-22.5 3q-7 0 -18 -2.5t-21.5 -11t-18 -24.5t-7.5 -44v-386v-5v-13.5t2 -19t6 -21t11 -17.5q3 -3 13 -9.5t34 -6.5q26 0 36 6.5t13 10.5q14 14 17.5 35t3.5 31v11t5 21.5t16.5 21.5t33.5 11q23 1 35.5 -8t19.5 -20
q8 -13 10 -30z" />
    <glyph glyph-name="B" unicode="B" horiz-adv-x="484" 
d="M172 457h67q3 0 9 4.5t14 15.5q11 14 16 34t5 41t-5 41t-16 34q-8 11 -14 15.5t-9 4.5h-67v-190zM256 104q8 0 18.5 8t19.5 23.5t15.5 37t6.5 48.5t-6.5 48.5t-15.5 36.5t-19.5 23t-18.5 8h-84v-233h84zM389 379q23 -33 35 -73.5t12 -84.5q0 -45 -12 -85.5t-35 -73.5
q-26 -38 -60.5 -58t-72.5 -20h-143h-1q-25 0 -42.5 17.5t-17.5 42.5v663q0 25 17.5 42.5t42.5 17.5h1h126q35 0 67 -18.5t55 -53.5q20 -29 31 -66t11 -77q0 -39 -10.5 -75.5t-30.5 -65.5q14 -13 27 -32z" />
    <glyph glyph-name="D" unicode="D" horiz-adv-x="477" 
d="M307 565q0 28 -7.5 44t-18 24.5t-22 11t-18.5 2.5h-70v-542h70q7 0 18.5 2.5t22 11t18 24.5t7.5 44v378zM366 719q21 -20 41 -56.5t20 -97.5v-378q0 -61 -20 -97.5t-41 -56.5q-53 -48 -125 -48h-75h-55q-25 0 -42.5 17.5t-17.5 42.5v662q0 25 17.5 42.5t42.5 17.5h55h75
q72 0 125 -48z" />
    <glyph glyph-name="braceleft" unicode="{" 
 />
    <glyph glyph-name="bar" unicode="|" 
 />
    <glyph glyph-name="braceright" unicode="}" 
 />
    <glyph glyph-name="asciitilde" unicode="~" 
 />
    <glyph glyph-name="glyph30" horiz-adv-x="0" 
 />
    <glyph glyph-name="Euro" unicode="&#x20ac;" 
 />
    <glyph glyph-name="glyph32" horiz-adv-x="0" 
 />
    <glyph glyph-name="quotesinglbase" unicode="&#x201a;" 
 />
    <glyph glyph-name="florin" unicode="&#x192;" 
 />
    <glyph glyph-name="quotedblbase" unicode="&#x201e;" 
 />
    <glyph glyph-name="ellipsis" unicode="&#x2026;" 
 />
    <glyph glyph-name="dagger" unicode="&#x2020;" horiz-adv-x="500" 
 />
    <glyph glyph-name="daggerdbl" unicode="&#x2021;" horiz-adv-x="500" 
 />
    <glyph glyph-name="circumflex" unicode="&#x2c6;" 
 />
    <glyph glyph-name="perthousand" unicode="&#x2030;" 
 />
    <glyph glyph-name="guilsinglleft" unicode="&#x2039;" 
 />
    <glyph glyph-name="glyph42" horiz-adv-x="0" 
 />
    <glyph glyph-name="glyph43" horiz-adv-x="0" 
 />
    <glyph glyph-name="glyph44" horiz-adv-x="0" 
 />
    <glyph glyph-name="glyph45" horiz-adv-x="0" 
 />
    <glyph glyph-name="quoteleft" unicode="&#x2018;" horiz-adv-x="234" 
d="M134 792l71 -124q13 -21 7 -45t-29 -37q-21 -12 -45 -5.5t-37 28.5l-71 124q-12 21 -5.5 45t27.5 36q23 13 46.5 6.5t35.5 -28.5z" />
    <glyph glyph-name="quoteright" unicode="&#x2019;" horiz-adv-x="237" 
d="M102 792q12 22 35.5 28.5t46.5 -6.5q21 -12 27.5 -36t-5.5 -45l-71 -124q-13 -22 -37 -28.5t-45 5.5q-23 13 -29 37t7 45l71 124v0z" />
    <glyph glyph-name="quotedblleft" unicode="&#x201c;" 
d="M510 792l71 -124q13 -21 7 -45t-29 -37q-21 -12 -45 -5.5t-37 28.5l-71 124q-12 21 -5.5 45t27.5 36q23 13 46.5 6.5t35.5 -28.5zM344 792l71 -124q13 -21 7 -45t-29 -37q-21 -12 -45 -5.5t-37 28.5l-71 124q-12 21 -5.5 45t27.5 36q23 13 46.5 6.5t35.5 -28.5z" />
    <glyph glyph-name="quotedblright" unicode="&#x201d;" 
d="M312 792q12 22 35.5 28.5t46.5 -6.5q21 -12 27.5 -36t-5.5 -45l-71 -124q-13 -22 -37 -28.5t-45 5.5q-23 13 -29 37t7 45zM478 792q12 22 35.5 28.5t46.5 -6.5q21 -12 27.5 -36t-5.5 -45l-71 -124q-13 -22 -37 -28.5t-45 5.5q-23 13 -29 37t7 45z" />
    <glyph glyph-name="bullet" unicode="&#x2022;" 
 />
    <glyph glyph-name="endash" unicode="&#x2013;" 
 />
    <glyph glyph-name="emdash" unicode="&#x2014;" 
 />
    <glyph glyph-name="tilde" unicode="&#x2dc;" horiz-adv-x="374" 
d="M344 665q17 -18 16 -43t-19 -42q-17 -17 -41.5 -16.5t-41.5 17.5q-1 0 -3 1t-5 2q-7 2 -14.5 -2t-13.5 -8q-25 -17 -48.5 -24t-45.5 -7q-33 0 -58.5 12t-39.5 25q-17 18 -17.5 43t16.5 42q17 18 41.5 19t41.5 -16q1 -1 4 -2.5t7 -2.5q14 -2 31 10q42 28 76 30.5t57 -5.5
q24 -7 38.5 -18t18.5 -15z" />
    <glyph glyph-name="trademark" unicode="&#x2122;" horiz-adv-x="461" 
d="M186 680q16 0 16 -16t-16 -16h-54v-204q0 -7 -4.5 -11.5t-10.5 -4.5q-16 0 -16 16v204h-55q-16 0 -16 16t16 16h140zM422 443q0 -16 -16 -16q-6 0 -10.5 4.5t-4.5 11.5v155l-51 -100q-2 -2 -3.5 -4.5t-4.5 -4.5q-2 -1 -7 -1t-7 1q-6 3 -8 9l-51 100v-155q0 -7 -4.5 -11.5
t-10.5 -4.5q-16 0 -16 16v220v1v1v1v1q1 1 1 4h1v1q1 0 1 1l2 2q0 1 1 1h1v1h1h1v1h1l1 1h1h1h1h1h1h1h1h1l2 -1h1l1 -1h1v-1h1l2 -2h1v-1v-1h1v-1h1l67 -133l67 133h1v1l1 1v1q1 1 1.5 1t1.5 1h1v1h1v1q2 0 3 1h1h1h1h1h1h1h1h1h1v-1h1h1v-1h1h1v-1h1v-1h1l2 -2v-1h1v-1
q1 -1 1 -4h1v-1v-1v-1v-1v-220z" />
    <glyph glyph-name="grave" unicode="`" horiz-adv-x="313" 
d="M95 755q21 13 45 6.5t37 -28.5l71 -123q13 -22 6.5 -46t-27.5 -36q-23 -13 -46.5 -6.5t-35.5 27.5l-72 124q-13 22 -7 45.5t29 36.5z" />
    <glyph glyph-name="at" unicode="@" 
 />
    <glyph glyph-name="glyph57" horiz-adv-x="0" 
 />
    <glyph glyph-name="glyph58" horiz-adv-x="0" 
 />
    <glyph glyph-name="glyph59" horiz-adv-x="0" 
 />
    <glyph glyph-name="glyph60" horiz-adv-x="0" 
 />
    <glyph glyph-name="glyph61" horiz-adv-x="0" 
 />
    <glyph glyph-name="breve" unicode="&#x2d8;" 
 />
    <glyph glyph-name="dotaccent" unicode="&#x2d9;" 
 />
    <glyph glyph-name="glyph64" horiz-adv-x="0" 
 />
    <glyph glyph-name="exclam" unicode="!" horiz-adv-x="141" 
d="M71 765q26 0 43 -17.5t17 -42.5v-491q0 -25 -17 -42.5t-43 -17.5q-25 0 -42.5 17.5t-17.5 42.5v491q0 25 17.5 42.5t42.5 17.5zM71 108q26 0 43.5 -17.5t17.5 -42.5t-17.5 -42.5t-43.5 -17.5q-25 0 -42.5 17.5t-17.5 42.5t17.5 42.5t42.5 17.5z" />
    <glyph glyph-name="quotedbl" unicode="&#x22;" horiz-adv-x="282" 
d="M64 769q25 0 42.5 -17.5t17.5 -42.5v-143q0 -25 -17.5 -42.5t-42.5 -17.5q-26 0 -43 17.5t-17 42.5v143q0 25 17 42.5t43 17.5zM216 769q25 0 42.5 -17.5t17.5 -42.5v-143q0 -25 -17.5 -42.5t-42.5 -17.5t-42.5 17.5t-17.5 42.5v143q0 25 17.5 42.5t42.5 17.5z" />
    <glyph glyph-name="numbersign" unicode="#" 
 />
    <glyph glyph-name="percent" unicode="%" 
 />
    <glyph glyph-name="ampersand" unicode="&#x26;" 
 />
    <glyph glyph-name="dollar" unicode="$" 
 />
    <glyph glyph-name="quotesingle" unicode="'" horiz-adv-x="149" 
d="M14 749q0 25 17 42.5t43 17.5q25 0 42.5 -17.5t17.5 -42.5v-142q0 -26 -17.5 -43.5t-42.5 -17.5q-26 0 -43 17.5t-16 42.5l-1 143v0z" />
    <glyph glyph-name="parenleft" unicode="(" horiz-adv-x="304" 
 />
    <glyph glyph-name="ring" unicode="&#x2da;" 
 />
    <glyph glyph-name="glyph74" horiz-adv-x="0" 
 />
    <glyph glyph-name="hungarumlaut" unicode="&#x2dd;" horiz-adv-x="1666" 
 />
    <glyph glyph-name="ogonek" unicode="&#x2db;" 
 />
    <glyph glyph-name="caron" unicode="&#x2c7;" 
 />
    <glyph glyph-name="dotlessi" unicode="&#x131;" 
 />
    <glyph glyph-name="hyphen" unicode="-" 
d="M508 476q26 0 43 -17t17 -43q0 -25 -17 -42.5t-43 -17.5h-203q-25 0 -42.5 17.5t-17.5 42.5q0 26 17.5 43t42.5 17h203v0z" />
    <glyph glyph-name="comma" unicode="," horiz-adv-x="185" 
d="M76 88q12 22 35.5 28.5t46.5 -6.5q21 -12 27.5 -36t-5.5 -45l-71 -124q-13 -22 -37 -28.5t-45 5.5q-23 13 -29 37t7 45l71 124v0z" />
    <glyph glyph-name="plus" unicode="+" horiz-adv-x="489" 
d="M413 387q25 0 42.5 -17t17.5 -43q0 -25 -17.5 -42.5t-42.5 -17.5h-106v-106q0 -25 -17.5 -42.5t-42.5 -17.5q-26 0 -43 17.5t-17 42.5v106h-107q-25 0 -42.5 17.5t-17.5 42.5q0 26 17.5 43t42.5 17h107v107q0 25 17 42.5t43 17.5q25 0 42.5 -17.5t17.5 -42.5v-107h106v0z
" />
    <glyph glyph-name="asterisk" unicode="*" horiz-adv-x="341" 
d="M302 636q25 0 42.5 -17.5t17.5 -42.5t-17.5 -42.5t-42.5 -17.5h-22l11 -19q13 -21 6.5 -45t-28.5 -37q-14 -8 -30 -8q-15 0 -29.5 8t-22.5 22l-10 19l-11 -19q-8 -14 -22 -22t-30 -8t-30 8q-22 13 -28.5 36.5t6.5 45.5l11 19h-22q-25 0 -42.5 17.5t-17.5 42.5t17.5 42.5
t42.5 17.5h21l-10 18q-13 22 -6.5 46t27.5 36q22 13 46 6.5t36 -28.5l11 -18l11 18q12 22 36 28.5t46 -5.5q21 -13 27.5 -37t-5.5 -45l-11 -19h22v0z" />
    <glyph glyph-name="parenright" unicode=")" horiz-adv-x="301" 
 />
    <glyph glyph-name="slash" unicode="/" horiz-adv-x="294" 
d="M229 757q24 -5 38 -26t9 -45l-131 -649q-5 -21 -21.5 -34.5t-37.5 -13.5q-8 0 -12 1q-24 5 -38 25.5t-9 45.5l131 649q5 24 25.5 38t45.5 9z" />
    <glyph glyph-name="period" unicode="." horiz-adv-x="105" 
d="M53 125q25 0 42.5 -17.5t17.5 -42.5q0 -26 -17.5 -43.5t-42.5 -17.5q-26 0 -43.5 17.5t-17.5 43.5q0 25 17.5 42.5t43.5 17.5z" />
    <glyph glyph-name="zero" unicode="0" horiz-adv-x="402" 
d="M234 648q-9 5 -18.5 6.5t-17.5 1.5q-7 0 -18 -2.5t-21.5 -11t-18 -24.5t-7.5 -44v-190zM388 185q0 -6 -0.5 -23t-5.5 -38.5t-15.5 -46t-30.5 -45.5q-18 -19 -51 -37t-86 -18q-54 0 -86 18t-49 37q-20 22 -31 47t-15.5 47.5t-4.5 40v24.5v383q0 61 20 97.5t41 56.5
q51 48 124 48q34 0 68 -12t61 -37t44 -63t17 -90v-389zM248 114q13 14 17 35.5t3 30.5v3v218l-112 -292q5 -4 14.5 -8t28.5 -4q25 0 35.5 7t13.5 10z" />
    <glyph glyph-name="one" unicode="1" horiz-adv-x="412" 
d="M335 104q25 0 42.5 -17.5t17.5 -42.5t-17.5 -42.5t-42.5 -17.5h-260q-25 0 -42.5 17.5t-17.5 42.5t17.5 42.5t42.5 17.5h72v456l-25 -25q-17 -17 -42 -17t-43 17q-17 18 -17 43t17 42l127 127q13 13 31 16.5t35 -3.5t27 -22t10 -33v-601h68v0z" />
    <glyph glyph-name="two" unicode="2" horiz-adv-x="464" 
d="M371 194q25 0 42.5 -17.5t17.5 -42.5q0 -28 -4.5 -56t-21.5 -51q-20 -28 -53 -40q-27 -10 -66 -10h-197q-25 0 -42.5 17.5t-17.5 42.5q0 52 14.5 97.5t37.5 86.5t51 78l56 71l42 53t36 51.5t25.5 50.5t9.5 50v4q1 8 -2.5 27t-15.5 33q-3 3 -14 9.5t-37 6.5q-35 0 -47 -14
q-11 -13 -12.5 -32.5t-0.5 -23.5q4 -25 -11 -45t-40 -23q-25 -4 -44.5 11t-23.5 40q0 3 -1 19t2 37.5t11.5 46.5t28.5 48q17 20 50 38t88 18q54 0 87.5 -17.5t50.5 -36.5q19 -21 30 -44.5t15.5 -44t5 -36.5t0.5 -22q0 -41 -12 -78t-32 -71.5t-45 -67l-51 -63.5
q-40 -49 -74.5 -96.5t-48.5 -100.5h128q9 0 14.5 0.5t8.5 1.5q1 4 1.5 11.5t0.5 23.5q0 25 17.5 42.5t42.5 17.5z" />
    <glyph glyph-name="three" unicode="3" horiz-adv-x="434" 
d="M352 404q70 -71 70 -219q0 -84 -40 -136q-57 -73 -180 -73q-55 0 -87.5 18.5t-49.5 37.5q-20 22 -29 47.5t-12 47.5t-2 37.5t2 19.5q4 14 13 25q8 9 21 16t33 4t30.5 -13t15.5 -21q5 -13 6 -28q-1 -7 0.5 -25.5t12.5 -30.5q12 -15 46 -15q31 0 51 5.5t30.5 17t14.5 28
t4 38.5q0 98 -36 136q-28 28 -93 28q-25 0 -42.5 17.5t-17.5 42.5v1q0 26 17.5 43t42.5 17h21.5t24.5 1t22 3t14 6q1 1 4 5.5t6 15.5t5 29.5t2 47.5v3q1 8 -2.5 27.5t-16.5 32.5q-3 3 -14 10t-37 7q-34 0 -46 -15q-11 -12 -12.5 -30.5t-0.5 -26.5v1q1 -16 -4 -29
q-5 -11 -15.5 -22t-33.5 -14t-36 4t-20 17q-8 11 -10 27q-1 3 -2 19t2 37.5t12 46.5t29 48q17 20 49.5 38.5t87.5 18.5t88.5 -18t50.5 -37q19 -21 30 -44t15.5 -44t5 -37t0.5 -22q0 -34 -3 -60t-8 -47q-11 -38 -31 -63z" />
    <glyph glyph-name="four" unicode="4" horiz-adv-x="407" 
d="M343 764q25 0 42.5 -17.5t17.5 -42.5v-661q0 -25 -17.5 -42.5t-42.5 -17.5t-42.5 17.5t-17.5 42.5v271h-229q-14 0 -26.5 6t-20.5 17q-19 24 -11 52l88 330q6 24 27.5 36.5t45.5 6.5q24 -7 36.5 -28.5t6.5 -45.5l-68 -254h151v270q0 25 17.5 42.5t42.5 17.5z" />
    <glyph glyph-name="five" unicode="5" horiz-adv-x="466" 
d="M402 379q12 -21 19 -42.5t10.5 -41t5 -36t1.5 -28.5q0 -20 -3.5 -59.5t-24.5 -81.5q-26 -50 -72 -78q-50 -31 -125 -31t-122 32q-43 30 -57 82q-6 24 7 45.5t37 27.5t45.5 -6.5t27.5 -37.5q1 -7 8 -12q5 -3 17 -7t37 -4q57 0 81 29.5t24 100.5q0 12 -3.5 38t-17.5 52
q-4 8 -11 16.5t-18 16t-27 12t-39 4.5h-101q-25 0 -42 17q-18 18 -18 43v283q0 25 17.5 42.5t42.5 17.5h226q25 0 42.5 -17.5t17.5 -42.5t-17.5 -42.5t-42.5 -17.5h-166v-163h41q73 0 126 -33q47 -29 74 -78z" />
    <glyph glyph-name="six" unicode="6" horiz-adv-x="466" 
d="M315 123q18 20 25.5 53.5t0.5 65.5v1q-1 2 -4.5 11t-12.5 20q-24 28 -73 28q-52 0 -85 -34q-12 -13 -17.5 -24.5l-6.5 -13.5t-2.5 -9.5t-0.5 -17.5q0 -8 3.5 -20.5t6.5 -18.5q0 -2 1 -3q30 -60 96 -64q44 -3 69 26zM459 265q11 -58 -1 -114q-7 -31 -20 -58.5t-33 -49.5
q-15 -17 -33 -30t-38 -21q-38 -15 -80 -15h-16q-67 4 -119 41q-50 35 -80 96q-47 100 -40 255q0 58 13 106t33.5 85.5t45 66t48.5 48.5q25 21 49 36t43.5 24.5t32 14t15.5 5.5q16 5 31 3q13 -2 26 -10t21 -28q8 -21 2 -36t-16 -25q-11 -11 -29 -19q-15 -5 -32 -13
q-14 -7 -32 -18.5t-37 -27.5q-89 -78 -93 -197q23 16 55.5 27t75.5 11q34 0 61 -7t48 -18.5t36 -25t26 -26.5q20 -27 27.5 -50t9.5 -30z" />
    <glyph glyph-name="seven" unicode="7" horiz-adv-x="403" 
d="M402 740q9 -11 11.5 -25t-1.5 -28l-189 -654q-5 -20 -21.5 -31.5t-36.5 -11.5h-8t-8 2q-24 7 -36 28.5t-5 45.5l167 578h-218q-25 0 -42.5 17.5t-17.5 42.5t17.5 42.5t42.5 17.5h297q30 0 48 -24z" />
    <glyph glyph-name="eight" unicode="8" horiz-adv-x="405" 
d="M298 185q0 98 -35 136q-20 20 -60 26q-41 -6 -59 -26q-36 -38 -36 -136v-4q1 -4 4 -18t13 -29q19 -31 55 -37q5 0 11 -0.5t12 -0.5q7 0 13.5 0.5t11.5 1.5q37 6 56 37q7 12 10 23.5t4 16.5v10zM138 571q0 -27 2.5 -44t5 -27t5 -14.5t3.5 -5.5q6 -5 20 -6.5t29 -2.5
q16 1 30 2.5t19 6.5q1 1 4 5.5t5.5 15.5t4.5 29.5t2 47.5q0 2 1 3v5h-1l1 1q-1 10 -4.5 26.5t-14.5 27.5q-3 3 -13 9.5t-34 7.5q-23 -1 -33 -7.5t-13 -9.5q-11 -11 -15 -27.5t-4 -26.5v-1q1 -8 0 -15zM418 176q1 -5 0 -9v-5q-4 -69 -40 -113q-44 -56 -125 -69q-19 -4 -45 -4
h-5h-4q-21 0 -42 3q-84 14 -129 70q-40 52 -40 136q0 148 70 219l2 2q-20 25 -31 63q-5 21 -8 47t-3 60v8q0 10 0.5 26t5 35t13 39t24.5 38q17 19 50 37.5t88 18.5h4h5q55 0 87.5 -18.5t49.5 -37.5q16 -18 25 -38t13.5 -39t5 -35t0.5 -26q0 -6 -1 -8q0 -34 -2.5 -60
t-8.5 -47q-11 -38 -30 -63l2 -2q69 -70 69 -219v-9z" />
    <glyph glyph-name="nine" unicode="9" horiz-adv-x="432" 
d="M437 554q21 -138 -87 -357q-19 -39 -38 -72.5l-34 -58.5t-24.5 -39.5t-10.5 -15.5q-9 -13 -22.5 -19.5t-27.5 -6.5q-19 0 -34 11q-20 14 -24.5 38.5t9.5 44.5l9 13.5t23 37l31.5 54.5t35.5 67q21 42 36 81q-17 -5 -35.5 -8t-39.5 -3h-1q-35 0 -62 7t-48 18.5t-36 25
t-25 26.5q-21 26 -28.5 49.5t-8.5 30.5q-6 28 -5.5 56.5t6.5 56.5q14 63 52 108q29 33 71 52q45 19 96 14q93 -6 147 -57q55 -50 74 -152zM300 482q8 9 13 17.5t7 13.5q0 5 -0.5 11t-1.5 11q-6 33 -16 54t-23.5 33t-31 17t-40.5 7q-43 3 -69 -26q-18 -20 -25 -53.5t-1 -65.5
l1 -1q0 -2 3.5 -11.5t12.5 -19.5q24 -28 73 -28q64 2 98 41z" />
    <glyph glyph-name="colon" unicode=":" horiz-adv-x="168" 
d="M84 524q25 0 42.5 -17.5t17.5 -42.5q0 -26 -17.5 -43.5t-42.5 -17.5q-26 0 -43.5 17.5t-17.5 43.5q0 25 17.5 42.5t43.5 17.5zM84 228q25 0 42.5 -17.5t17.5 -42.5q0 -26 -17.5 -43.5t-42.5 -17.5q-26 0 -43.5 17.5t-17.5 43.5q0 25 17.5 42.5t43.5 17.5z" />
    <glyph glyph-name="semicolon" unicode=";" horiz-adv-x="163" 
d="M52 178q12 22 35.5 28.5t46.5 -6.5q21 -12 27.5 -36t-5.5 -45l-71 -124q-13 -22 -37 -28.5t-45 5.5q-23 13 -29 37t7 45zM103 528q25 0 42.5 -17.5t17.5 -42.5q0 -26 -17.5 -43.5t-42.5 -17.5q-26 0 -43.5 17.5t-17.5 43.5q0 25 17.5 42.5t43.5 17.5z" />
    <glyph glyph-name="less" unicode="&#x3c;" horiz-adv-x="388" 
d="M350 181q17 -18 17 -43t-17 -42q-18 -18 -43 -18q-23 0 -42 17l-235 234q-18 20 -18 43q0 25 18 42l237 237q17 18 42 18t43 -18q17 -17 17 -42t-17 -42l-195 -195z" />
    <glyph glyph-name="equal" unicode="=" horiz-adv-x="529" 
d="M62 411q-25 0 -42.5 17.5t-17.5 42.5t17.5 42.5t42.5 17.5h404q25 0 42.5 -17.5t17.5 -42.5t-17.5 -42.5t-42.5 -17.5h-404zM466 341q25 0 42.5 -17.5t17.5 -42.5t-17.5 -42.5t-42.5 -17.5h-404q-25 0 -42.5 17.5t-17.5 42.5t17.5 42.5t42.5 17.5h404z" />
    <glyph glyph-name="greater" unicode="&#x3e;" horiz-adv-x="398" 
d="M233 372l-195 195q-17 17 -17 42t17 42q18 18 43 18t42 -18l237 -237q18 -17 18 -42q0 -23 -18 -43l-235 -234q-19 -17 -42 -17q-25 0 -43 18q-17 17 -17 42t17 43z" />
    <glyph glyph-name="question" unicode="?" horiz-adv-x="532" 
d="M257 84q25 0 42.5 -17.5t17.5 -42.5q0 -26 -17.5 -43.5t-42.5 -17.5t-42.5 17.5t-17.5 43.5q0 25 17.5 42.5t42.5 17.5zM427 723q32 -32 49.5 -73.5t17.5 -86.5q0 -83 -45 -141q-19 -24 -40.5 -40l-41.5 -30q-16 -11 -25.5 -18.5t-15 -13.5t-7 -11.5t-1.5 -12.5v-54
q0 -8 -1 -10v-7v-32q0 -21 -12 -37t-31 -21q-2 -1 -5 -1q-2 -1 -5.5 -1h-6.5q-9 0 -12 1q-3 0 -5 1q-19 5 -31 21t-12 37v33v7q0 4 1 6v57q0 59 37 102q15 17 31.5 29.5t33.5 23.5l30 21.5t23.5 22.5t15 28.5t5.5 39.5q0 22 -8.5 41t-23 33.5t-34 23t-41.5 8.5t-41 -8.5
t-33.5 -23t-23 -33.5t-8.5 -41q0 -26 -17.5 -43t-42.5 -17t-42.5 17t-17.5 43q0 45 17 86.5t49 73.5t73.5 49t86.5 17q46 0 87 -17t73 -49z" />
    <glyph glyph-name="underscore" unicode="_" 
 />
    <glyph glyph-name="asciicircum" unicode="^" 
 />
    <glyph glyph-name="bracketright" unicode="]" 
 />
    <glyph glyph-name="backslash" unicode="\" 
 />
    <glyph glyph-name="bracketleft" unicode="[" 
 />
    <glyph glyph-name="glyph107" horiz-adv-x="0" 
 />
    <glyph glyph-name="glyph108" horiz-adv-x="0" 
 />
    <glyph glyph-name="glyph109" horiz-adv-x="0" 
 />
    <glyph glyph-name="glyph110" horiz-adv-x="0" 
 />
    <glyph glyph-name="glyph111" horiz-adv-x="0" 
 />
    <glyph glyph-name="glyph112" horiz-adv-x="0" 
 />
    <glyph glyph-name="glyph113" horiz-adv-x="0" 
 />
    <glyph glyph-name="glyph114" horiz-adv-x="0" 
 />
    <glyph glyph-name="fraction" unicode="&#x2044;" horiz-adv-x="500" 
 />
    <glyph glyph-name="glyph116" horiz-adv-x="0" 
 />
    <glyph glyph-name="glyph117" horiz-adv-x="0" 
 />
    <glyph glyph-name="glyph118" horiz-adv-x="0" 
 />
    <glyph glyph-name="A" unicode="A" horiz-adv-x="423" 
d="M209 393l-30 -147h59zM400 48q5 -25 -8.5 -45.5t-38.5 -25.5q-4 -1 -11 -1q-21 0 -37.5 13.5t-21.5 34.5l-21 102h-107l-21 -102q-4 -21 -20.5 -34.5t-37.5 -13.5q-8 0 -12 1q-25 5 -38.5 25.5t-8.5 45.5l133 661v1v2q0 1 0.5 1t0.5 1v1v1q1 1 1 2t0.5 1t0.5 1v1
q3 8 9 14v1q1 0 1 0.5t1 0.5v1l1 1l1 1l1 1l1 1l1 1l2 1q6 6 14 9h1q1 1 2 1q5 2 9 2.5t9 1.5h1h2h2q5 -1 9 -1.5t9 -2.5q1 0 2 -1h1q8 -3 14 -9q1 0 2 -1l1 -1l1 -1l1 -1l1 -1l1 -1l1 -1l1 -1v-1q6 -6 9 -14v-1q0 -1 0.5 -1t0.5 -1q2 -6 2 -9z" />
    <glyph glyph-name="z" unicode="z" horiz-adv-x="477" 
d="M366 106q25 0 42.5 -17.5t17.5 -42.5t-17.5 -42.5t-42.5 -17.5h-254q-17 0 -30 8q-22 10 -31 32t0 45l227 575h-131q-25 0 -42.5 17.5t-17.5 42.5q0 26 17.5 43t42.5 17h219h3h3h3h1l1 -1h2h1q1 0 1 -0.5t1 -0.5h1l2 -1q2 0 3 -1q1 0 1.5 -0.5t1.5 -0.5t2 -1l1 -1h2
q0 -1 1 -1l1 -1l1 -1h1q1 -1 2 -1v-1q4 -3 10 -9v-1q2 0 2 -2h1q0 -1 1 -2l1 -1v-1q1 -1 1 -2l1 -1q4 -8 5 -13v-2q1 0 1 -1v-2v-1v-1q1 -1 1 -2v-1v-2v-1v-3v-3v-2v-1q0 -1 -1 -2v-1v-2v-1q0 -1 -1 -1v-3q-1 -1 -1 -3q0 -1 -0.5 -1.5t-0.5 -1.5l-228 -578h172v0z" />
    <glyph glyph-name="y" unicode="y" horiz-adv-x="446" 
d="M371 758q23 -9 33 -32t1 -46l-122 -309v-328q0 -25 -17.5 -42.5t-42.5 -17.5q-26 0 -43 17.5t-17 42.5v328l-122 309q-10 23 0 46t33 32t46 -0.5t32 -32.5l71 -179l70 179q9 23 32 32.5t46 0.5z" />
    <glyph glyph-name="x" unicode="x" horiz-adv-x="477" 
d="M425 67q9 -23 -1 -46t-33 -32q-9 -4 -22 -4q-18 0 -33 10.5t-23 28.5l-74 194l-75 -194q-7 -18 -22.5 -28.5t-33.5 -10.5q-12 0 -21 4q-23 9 -33.5 32t-1.5 46l104 270l19 48l-113 293q-9 23 1 45.5t33 31.5t46 -1t32 -33l65 -169l65 169q9 23 31.5 33t45.5 1t33.5 -31.5
t1.5 -45.5l-113 -293l19 -48l103 -270v0z" />
    <glyph glyph-name="w" unicode="w" horiz-adv-x="625" 
d="M517 764q25 -3 40 -22.5t12 -44.5l-81 -660q0 -2 -0.5 -3t-0.5 -2v-1l-1 -1v-2v-1l-1 -2q0 -2 -1 -3q-1 -2 -1.5 -3.5t-1.5 -3.5h-1q0 -2 -1 -3q0 -1 -0.5 -1t-0.5 -1h-1q0 -1 -1 -2v-1q-1 0 -1 -1q-1 0 -1 -1q-1 0 -1 -1q-3 -4 -11 -10h-1l-1 -1h-1q-1 -1 -2 -1l-1 -1
l-1 -1h-2v-1l-6 -2t-7 -2h-2h-1h-1q-1 0 -1 -1h-2h-2h-3q-7 0 -10 1q-2 0 -3 1h-3l-1 1h-1q-1 0 -2 1h-1l-1 1q-4 0 -7 3l-2 1q-1 1 -2 1.5t-2 1.5q-1 0 -1 0.5t-1 0.5l-2 2q-10 8 -14 18q-1 1 -1 2l-1 1v1q0 1 -0.5 1t-0.5 1t-0.5 1.5t-0.5 1.5l-59 179l-59 -179
q-1 -1 -1 -3q-1 -1 -1 -2v-1q-1 0 -1 -1t-1 -2q-7 -12 -14 -18l-2 -2h-1l-1 -1t-2 -1.5t-2 -1.5h-1q0 -1 -1 -1h-1q-2 -2 -8 -4q-1 -1 -2 -1h-1q-1 0 -1 -1h-3q-1 -1 -3 -1q-3 -1 -10 -1h-3h-1h-2h-1q0 1 -1 1h-2h-2q-4 1 -7 2l-6 2l-1 1h-1q-1 1 -2 1l-1 1l-1 1h-1l-2 1
q-4 3 -10 9l-1 1l-1 1l-1 1l-1 1v1l-2 2q0 1 -0.5 1t-0.5 1q-3 5 -5 10q-1 1 -1 3q-1 1 -1 2v1q0 1 -0.5 1t-0.5 1v1v1q-1 1 -1 5l-82 660q-3 25 12.5 44.5t40.5 22.5t44.5 -12t22.5 -40l48 -396l33 99q0 1 0.5 1.5t0.5 1.5l1 1v1q0 1 0.5 1.5t0.5 1.5q2 2 2.5 3.5t2.5 3.5
q0 1 1 2v1q1 0 1 0.5t1 0.5v1q1 0 1 0.5t1 0.5v1l1 1q1 1 2 1v1q1 1 2 1v1q1 0 2 1q2 2 3 2q2 2 7 4q1 1 1.5 1t1.5 1h1l1 1q2 0 3 1q2 0 3 1h3l1 1h2h1h2l1 1h2h1h1h2h1h2h1h2q0 -1 1 -1h2h1h2l1 -1h2h1q1 -1 3 -1q1 -1 3 -1l2 -1q4 -2 10 -6q2 0 2 -2h1l1 -1q1 0 1 -1
l1 -1q1 0 1 -1q1 0 1 -1q1 0 1 -1q1 0 1 -1q1 0 1 -1q1 0 1 -1l1 -1l1 -1l1 -2q2 -2 2.5 -3.5t2.5 -3.5q0 -2 1 -3v-1l1 -1q0 -1 0.5 -1.5t0.5 -1.5l32 -99l49 396q3 25 22.5 40t44.5 12z" />
    <glyph glyph-name="v" unicode="v" horiz-adv-x="468" 
d="M379 759q25 -5 38.5 -25.5t8.5 -45.5l-132 -653q-5 -22 -21.5 -35t-37.5 -13h-2h-3q-21 0 -37.5 13t-20.5 35l-133 653q-5 25 8.5 45.5t38.5 25.5q24 5 44.5 -8.5t25.5 -38.5l77 -375l76 375q5 25 25.5 38.5t44.5 8.5z" />
    <glyph glyph-name="u" unicode="u" horiz-adv-x="501" 
d="M437 182q0 -6 -0.5 -22.5t-5.5 -38t-16 -46t-31 -45.5q-17 -19 -50.5 -37t-86.5 -18t-85.5 18t-49.5 37q-20 22 -30.5 47t-15 47.5t-4.5 40v24.5v516q0 25 17.5 42.5t42.5 17.5t42.5 -17.5t17.5 -42.5v-521v-2v-14t2 -19t6 -20.5t11 -17.5q3 -3 13 -9.5t33 -6.5
q26 0 36.5 6.5t13.5 9.5q14 15 17 36t3 30v3v1v523q0 25 17.5 42.5t42.5 17.5t42.5 -17.5t17.5 -42.5v-522v0z" />
    <glyph glyph-name="t" unicode="t" horiz-adv-x="445" 
d="M377 766q25 0 42.5 -17t17.5 -43q0 -25 -17.5 -42.5t-42.5 -17.5h-93v-600q0 -25 -17.5 -42.5t-42.5 -17.5t-42.5 17.5t-17.5 42.5v600h-95q-25 0 -42.5 17.5t-17.5 42.5q0 26 17.5 43t42.5 17h308v0z" />
    <glyph glyph-name="s" unicode="s" horiz-adv-x="468" 
d="M379 352q59 -74 59 -173q0 -31 -6.5 -55.5t-16 -43.5t-21.5 -33t-24 -24q-56 -45 -136 -45q-39 0 -73 11t-60 34q-11 9 -22.5 23t-21 33t-15.5 44t-6 57q0 25 17.5 42.5t42.5 17.5q26 0 43 -17.5t17 -42.5q0 -14 2.5 -28.5t10.5 -26.5t23.5 -19.5t41.5 -7.5
q18 0 33.5 4.5t26.5 13.5q24 21 24 63q0 31 -8 54t-23.5 42.5t-38 37l-50.5 37.5q-26 18 -51.5 37.5t-47.5 44.5q-26 32 -39.5 66.5t-13.5 75.5q0 6 0.5 22t5 37t15 44t30.5 44q17 19 51 37t88 18q55 0 87.5 -18.5t49.5 -37.5q19 -23 28.5 -48.5t12.5 -47t2 -37.5t-2 -19
q-3 -18 -12 -30q-8 -11 -21.5 -18.5t-36.5 -2.5q-22 4 -32.5 14.5t-14 22t-3 20.5t0.5 11q1 4 1 11t-1.5 15t-4.5 16t-8 14q-12 15 -46 15q-27 0 -37.5 -7t-13.5 -10q-7 -7 -10.5 -16t-5.5 -18t-2.5 -15.5t-0.5 -9.5v-2v-2q0 -20 7 -36.5t19.5 -31t31.5 -29l43 -31.5
l57.5 -43t54.5 -53z" />
    <glyph glyph-name="r" unicode="r" horiz-adv-x="491" 
d="M450 70q11 -23 1.5 -46t-32.5 -33q-12 -5 -24 -5q-17 0 -32 9.5t-23 26.5l-111 254h-60v-230q0 -25 -17.5 -42.5t-42.5 -17.5t-42.5 17.5t-17.5 42.5v660q0 25 17.5 42.5t42.5 17.5h145q38 0 73 -21.5t61 -61.5q45 -71 45 -162q0 -44 -11.5 -85t-33.5 -76
q-10 -15 -21 -27t-22 -22zM254 396q5 0 13.5 6.5t19.5 22.5q13 20 19.5 45t6.5 51t-6.5 51.5t-19.5 45.5q-11 15 -19.5 21.5t-13.5 6.5h-85v-250h85z" />
    <glyph glyph-name="q" unicode="q" horiz-adv-x="500" 
d="M295 138q13 14 17 35t4 30l-1 3v1l1 390q0 27 -7.5 43t-18 25t-22.5 11.5t-22 2.5q-8 0 -19 -2.5t-21 -10.5t-17.5 -24.5t-7.5 -43.5v-388l-1 -2q0 -5 0.5 -14t2.5 -19t6 -20.5t11 -17.5q2 -3 12 -9.5t34 -6.5q26 0 36 6.5t13 10.5zM433 54q16 -19 14.5 -43.5
t-20.5 -41.5q-18 -15 -40 -15q-12 0 -24 5t-21 16l-31 36q-14 -5 -30 -7.5t-35 -2.5q-53 0 -85.5 18t-49.5 37q-20 22 -30.5 47t-15 47.5t-5 40t0.5 24.5v383q0 30 5.5 54t14.5 43t19.5 33t20.5 23q53 48 125 48q34 0 68 -12t61 -37t44 -63t17 -90l-1 -389v-17.5t-3 -29.5
t-9 -37t-18 -39z" />
    <glyph glyph-name="p" unicode="p" horiz-adv-x="474" 
d="M285 426q12 20 19 45t7 51t-7 51.5t-19 45.5q-11 15 -19.5 21.5t-13.5 6.5h-84v-250h84q5 0 13.5 6.5t19.5 22.5zM386 683q22 -34 33.5 -75.5t11.5 -85.5t-11.5 -85t-33.5 -76q-26 -40 -61 -62t-73 -22h-84v-231q0 -25 -17.5 -42.5t-42.5 -17.5t-42.5 17.5t-17.5 42.5
v660q0 17 8 30.5t21 21.5q15 9 32 9h143q38 0 73 -21.5t61 -62.5z" />
    <glyph glyph-name="o" unicode="o" horiz-adv-x="453" 
d="M276 114q7 7 11 17t6 20t2.5 17.5t0.5 10.5v2v392q0 27 -7.5 43t-18 25t-22.5 11.5t-22 2.5q-8 0 -19 -2.5t-21 -10.5t-17.5 -24.5t-7.5 -43.5v-388v-2v-14t2 -19t6 -20.5t11 -17.5q3 -3 13 -9.5t33 -6.5q26 0 36.5 7t13.5 10zM416 184q0 -6 -0.5 -22.5t-5.5 -38t-16 -46
t-31 -45.5q-17 -19 -50.5 -37t-86.5 -18t-85.5 18t-49.5 37q-20 22 -30.5 47t-15 47.5t-4.5 40v24.5v383q0 60 20 97t41 56q51 48 124 48q34 0 68 -12t61 -37t44 -63t17 -90v-389z" />
    <glyph glyph-name="n" unicode="n" horiz-adv-x="507" 
d="M397 767q25 0 42.5 -17.5t17.5 -42.5v-661v-4v-3v-1v-2l-1 -1v-1v-2v-1q-1 -1 -1 -2v-1q0 -1 -0.5 -1t-0.5 -1t-0.5 -1.5t-0.5 -1.5t-0.5 -1.5t-0.5 -1.5t-0.5 -1t-0.5 -1v-1q-1 0 -1 -1l-1 -1q0 -1 -1 -2l-1 -1v-1q-1 0 -1 -1t-1 -1q0 -1 -0.5 -1t-0.5 -1h-1q0 -1 -1 -2
l-2 -2l-2 -2l-2 -2h-1l-2 -2q-1 -1 -2 -1q0 -1 -1 -1l-1 -1q-1 0 -1 -0.5t-1 -0.5h-1l-2 -2q-4 -2 -7 -3t-8 -2q-4 -1 -12 -1q-6 0 -9 1h-2h-1q-1 0 -1 1h-4v1h-2q-4 2 -5 2t-1 1h-1q-1 0 -1 1q-1 0 -2 1q-1 0 -1 1h-1q-1 0 -1 0.5t-1 0.5q-11 8 -18 19v1q-1 0 -1 1l-1 1v1
q-1 1 -1 2t-1 2l-171 395v-372q0 -25 -17.5 -42.5t-42.5 -17.5t-42.5 17.5t-17.5 42.5v661v4v3v1v2l1 1v1v2v1q1 1 1 2v1q0 1 0.5 1t0.5 1t0.5 1.5t0.5 1.5t0.5 1.5t0.5 1.5t0.5 1t0.5 1v1l2 2q0 1 0.5 1t0.5 1l1 1v1q1 1 1 2h1q0 1 0.5 1t0.5 1h1q0 1 1 2l2 2v1q1 0 2 1v1
q1 0 2 1h1l2 2l2 2h1q0 1 1 1t1 0.5t1 0.5h1l2 2q7 4 14 5h1q5 1 15 1h3h1l1 -1h2h1h2q0 -1 1 -1h2h1q0 -1 2 -1q1 -1 3 -1q1 -1 2 -1h1q0 -1 2 -1v-1q2 0 2 -1h1q1 0 1 -0.5t1 -0.5l1 -1l1 -1l1 -1h1q1 -1 2 -1v-1q1 0 1 -0.5t1 -0.5v-1q1 0 1 -0.5t1 -0.5v-1l2 -2l2 -2
l2 -2q0 -1 1 -2q1 0 1 -1t1 -1q0 -2 1 -2v-1q1 -1 1 -2h1q0 -2 0.5 -2.5t0.5 -1.5l171 -395v372q0 25 17.5 42.5t42.5 17.5z" />
    <glyph glyph-name="m" unicode="m" horiz-adv-x="570" 
d="M524 45q0 -25 -17.5 -42.5t-42.5 -17.5t-42.5 17.5t-17.5 42.5v412l-63 -124q-8 -22 -29 -32q-12 -6 -25 -6h-1h-1h-1h-1q-13 0 -25 6q-21 10 -29 32l-63 124v-412q0 -25 -17.5 -42.5t-42.5 -17.5t-42.5 17.5t-17.5 42.5v662v3v3v1v1q0 1 0.5 1t0.5 1v1v2q0 1 0.5 1.5
t0.5 1.5q1 6 4 11q0 1 0.5 1t0.5 1l1 1l1 1q0 1 1 2v1l2 2t3.5 4t3.5 4l2 2h1q0 1 0.5 1t0.5 1h1q1 1 2 1q0 1 1 1l1 1l2 1q1 1 2 1l1 1q1 0 2 1q1 0 1.5 0.5t1.5 0.5t1.5 0.5t1.5 0.5t2 1h1h2l1 1h1h2h1q1 1 2 1h1h3h3h3h2h1q1 0 2 -1h2h1h2q4 -2 7 -2.5t6 -2.5h1
q0 -1 2 -1q0 -1 1 -1l1 -1q1 0 2 -1l2 -2h1q5 -3 8 -8l2 -2l2 -2q0 -1 0.5 -1t0.5 -1l1 -1l1 -1q0 -1 1 -2q0 -1 0.5 -1.5t0.5 -1.5l126 -247l126 247q0 2 1 3t1 2q1 0 1 1l1 1q0 1 1 2l2 2l2 2q3 5 8 8l2 2h1q1 1 2 1l1 1q1 0 1 1q2 0 2 1h1q2 2 5 2.5t5 1.5q2 0 3 1h2h1h2
q0 1 1 1h2h2h3h3h3q2 0 3 -1h2h2l1 -1h2h1l2 -1q1 0 1.5 -0.5t1.5 -0.5t2 -1h1q1 -1 2 -1v-1q2 0 3 -1t2 -1l1 -1l1 -1q1 0 2 -1l2 -2q2 0 2 -2q5 -3 8 -8l2 -2v-1q1 -1 1 -2q1 0 1 -1l1 -1q0 -1 1 -2q2 -5 4 -11q0 -2 1 -3v-2v-1q0 -1 1 -2v-1v-1v-3v-3v-662z" />
    <glyph glyph-name="l" unicode="l" horiz-adv-x="516" 
d="M398 105q26 0 43 -17.5t17 -42.5t-17 -42.5t-43 -17.5h-261q-25 0 -42.5 17.5t-17.5 42.5v662q0 25 17.5 42.5t42.5 17.5t42.5 -17.5t17.5 -42.5v-602h201v0z" />
    <glyph glyph-name="k" unicode="k" horiz-adv-x="508" 
d="M473 73q11 -23 3.5 -46.5t-30.5 -34.5q-12 -6 -27 -6q-17 0 -31 8.5t-22 24.5l-148 292l-46 -74v-195q0 -25 -17.5 -42.5t-42.5 -17.5t-42.5 17.5t-17.5 42.5v212v1v448q0 25 17.5 42.5t42.5 17.5t42.5 -17.5t17.5 -42.5v-237l164 266q13 22 37 27.5t46 -7.5
q21 -13 27 -37t-8 -45l-147 -239l182 -358v0z" />
    <glyph glyph-name="j" unicode="j" horiz-adv-x="493" 
d="M430 189q0 -6 -0.5 -23t-5.5 -38.5t-16 -46t-31 -45.5q-17 -19 -50.5 -37t-86.5 -18t-85.5 18t-49.5 37q-21 24 -32 50.5t-15 50t-4 40.5v21q3 15 12 27q7 11 20 19.5t35 8.5t32.5 -10.5t15.5 -22.5q5 -14 5 -32v-13.5t2.5 -19t6.5 -21t11 -17.5q2 -3 12 -9.5t34 -6.5
q26 0 36.5 7t13.5 10q7 7 11 17t6 20t2.5 17.5t0.5 10.5v4v525q0 25 17.5 42.5t42.5 17.5t42.5 -17.5t17.5 -42.5v-523v0z" />
    <glyph glyph-name="i" unicode="i" horiz-adv-x="248" 
d="M124 767q26 0 43 -17.5t17 -42.5v-662q0 -25 -17 -42.5t-43 -17.5q-25 0 -42.5 17.5t-17.5 42.5v662q0 25 17.5 42.5t42.5 17.5z" />
    <glyph glyph-name="h" unicode="h" horiz-adv-x="515" 
d="M396 767q25 0 42.5 -17.5t17.5 -42.5v-662q0 -25 -17.5 -42.5t-42.5 -17.5t-42.5 17.5t-17.5 42.5v230h-156v-230q0 -25 -17.5 -42.5t-42.5 -17.5t-42.5 17.5t-17.5 42.5v662q0 25 17.5 42.5t42.5 17.5t42.5 -17.5t17.5 -42.5v-312h156v312q0 25 17.5 42.5t42.5 17.5z
" />
    <glyph glyph-name="g" unicode="g" horiz-adv-x="477" 
d="M427 184q0 -6 -0.5 -23t-5.5 -38.5t-15.5 -46t-30.5 -45.5q-18 -19 -51.5 -37t-86.5 -18t-85.5 18t-49.5 37q-20 22 -30.5 47t-15 47.5t-5 40t0.5 24.5v384q0 61 20 97.5t41 56.5q51 48 124 48t124 -46q21 -20 41.5 -57t20.5 -99q0 -26 -17.5 -43t-42.5 -17t-42.5 17
t-17.5 43q0 25 -6 41t-15.5 25t-21.5 12.5t-23 3.5q-8 0 -19 -2.5t-21 -11t-17.5 -24.5t-7.5 -44v-389l-1 -2q0 -5 0.5 -13.5t2.5 -19t6 -21t11 -17.5q3 -3 12.5 -9.5t33.5 -6.5q26 0 36.5 7t13.5 10q7 7 11 17t6.5 20t2.5 18v11v1v101h-44q-25 0 -42.5 17.5t-17.5 42.5
t17.5 42.5t42.5 17.5h164v-217v0z" />
    <glyph glyph-name="f" unicode="f" horiz-adv-x="469" 
d="M170 648v-252h134q26 0 43 -17.5t17 -42.5t-17 -42.5t-43 -17.5h-134v-230q0 -25 -17 -42.5t-43 -17.5q-25 0 -42.5 17.5t-17.5 42.5v662q0 25 17.5 42.5t42.5 17.5h251q25 0 42.5 -17.5t17.5 -42.5q0 -26 -17.5 -43t-42.5 -17h-191z" />
    <glyph glyph-name="e" unicode="e" horiz-adv-x="476" 
d="M365 106q25 0 42.5 -17.5t17.5 -42.5t-17.5 -42.5t-42.5 -17.5h-245q-25 0 -42.5 17.5t-17.5 42.5v662q0 25 17.5 42.5t42.5 17.5h245q25 0 42.5 -17.5t17.5 -42.5q0 -26 -17.5 -43t-42.5 -17h-185v-252h128q25 0 42.5 -17.5t17.5 -42.5t-17.5 -42.5t-42.5 -17.5h-128
v-170h185v0z" />
    <glyph glyph-name="d" unicode="d" horiz-adv-x="477" 
d="M307 565q0 28 -7.5 44t-18 24.5t-22 11t-18.5 2.5h-70v-542h70q7 0 18.5 2.5t22 11t18 24.5t7.5 44v378zM366 719q21 -20 41 -56.5t20 -97.5v-378q0 -61 -20 -97.5t-41 -56.5q-53 -48 -125 -48h-75h-55q-25 0 -42.5 17.5t-17.5 42.5v662q0 25 17.5 42.5t42.5 17.5h55h75
q72 0 125 -48z" />
    <glyph glyph-name="c" unicode="c" horiz-adv-x="484" 
d="M436 186q0 -3 -0.5 -19.5t-5 -39t-15.5 -48.5t-32 -48q-17 -19 -50.5 -37t-86.5 -18t-85.5 18t-49.5 37q-20 22 -31 47t-15.5 47.5t-4.5 40v24.5v384q0 61 20 97.5t41 56.5q25 23 57 35.5t67 12.5q34 0 68.5 -12t61.5 -37t44 -63t17 -90q0 -26 -17.5 -43t-42.5 -17
t-42.5 17t-17.5 43q0 27 -7.5 43t-18 24.5t-23 11.5t-22.5 3q-7 0 -18 -2.5t-21.5 -11t-18 -24.5t-7.5 -44v-386v-5v-13.5t2 -19t6 -21t11 -17.5q3 -3 13 -9.5t34 -6.5q26 0 36 6.5t13 10.5q14 14 17.5 35t3.5 31v11t5 21.5t16.5 21.5t33.5 11q23 1 35.5 -8t19.5 -20
q8 -13 10 -30z" />
    <glyph glyph-name="b" unicode="b" horiz-adv-x="484" 
d="M172 457h67q3 0 9 4.5t14 15.5q11 14 16 34t5 41t-5 41t-16 34q-8 11 -14 15.5t-9 4.5h-67v-190zM256 104q8 0 18.5 8t19.5 23.5t15.5 37t6.5 48.5t-6.5 48.5t-15.5 36.5t-19.5 23t-18.5 8h-84v-233h84zM389 379q23 -33 35 -73.5t12 -84.5q0 -45 -12 -85.5t-35 -73.5
q-26 -38 -60.5 -58t-72.5 -20h-143h-1q-25 0 -42.5 17.5t-17.5 42.5v663q0 25 17.5 42.5t42.5 17.5h1h126q35 0 67 -18.5t55 -53.5q20 -29 31 -66t11 -77q0 -39 -10.5 -75.5t-30.5 -65.5q14 -13 27 -32z" />
    <glyph glyph-name="a" unicode="a" horiz-adv-x="423" 
d="M209 393l-30 -147h59zM400 48q5 -25 -8.5 -45.5t-38.5 -25.5q-4 -1 -11 -1q-21 0 -37.5 13.5t-21.5 34.5l-21 102h-107l-21 -102q-4 -21 -20.5 -34.5t-37.5 -13.5q-8 0 -12 1q-25 5 -38.5 25.5t-8.5 45.5l133 661v1v2q0 1 0.5 1t0.5 1v1v1q1 1 1 2t0.5 1t0.5 1v1
q3 8 9 14v1q1 0 1 0.5t1 0.5v1l1 1l1 1l1 1l1 1l1 1l2 1q6 6 14 9h1q1 1 2 1q5 2 9 2.5t9 1.5h1h2h2q5 -1 9 -1.5t9 -2.5q1 0 2 -1h1q8 -3 14 -9q1 0 2 -1l1 -1l1 -1l1 -1l1 -1l1 -1l1 -1l1 -1v-1q6 -6 9 -14v-1q0 -1 0.5 -1t0.5 -1q2 -6 2 -9z" />
    <glyph glyph-name="G" unicode="G" horiz-adv-x="477" 
d="M427 184q0 -6 -0.5 -23t-5.5 -38.5t-15.5 -46t-30.5 -45.5q-18 -19 -51.5 -37t-86.5 -18t-85.5 18t-49.5 37q-20 22 -30.5 47t-15 47.5t-5 40t0.5 24.5v384q0 61 20 97.5t41 56.5q51 48 124 48t124 -46q21 -20 41.5 -57t20.5 -99q0 -26 -17.5 -43t-42.5 -17t-42.5 17
t-17.5 43q0 25 -6 41t-15.5 25t-21.5 12.5t-23 3.5q-8 0 -19 -2.5t-21 -11t-17.5 -24.5t-7.5 -44v-389l-1 -2q0 -5 0.5 -13.5t2.5 -19t6 -21t11 -17.5q3 -3 12.5 -9.5t33.5 -6.5q26 0 36.5 7t13.5 10q7 7 11 17t6.5 20t2.5 18v11v1v101h-44q-25 0 -42.5 17.5t-17.5 42.5
t17.5 42.5t42.5 17.5h164v-217v0z" />
    <glyph glyph-name="E" unicode="E" horiz-adv-x="476" 
d="M365 106q25 0 42.5 -17.5t17.5 -42.5t-17.5 -42.5t-42.5 -17.5h-245q-25 0 -42.5 17.5t-17.5 42.5v662q0 25 17.5 42.5t42.5 17.5h245q25 0 42.5 -17.5t17.5 -42.5q0 -26 -17.5 -43t-42.5 -17h-185v-252h128q25 0 42.5 -17.5t17.5 -42.5t-17.5 -42.5t-42.5 -17.5h-128
v-170h185v0z" />
    <glyph glyph-name="F" unicode="F" horiz-adv-x="469" 
d="M170 648v-252h134q26 0 43 -17.5t17 -42.5t-17 -42.5t-43 -17.5h-134v-230q0 -25 -17 -42.5t-43 -17.5q-25 0 -42.5 17.5t-17.5 42.5v662q0 25 17.5 42.5t42.5 17.5h251q25 0 42.5 -17.5t17.5 -42.5q0 -26 -17.5 -43t-42.5 -17h-191z" />
    </font>
</defs>
</svg>
